<svg height="512pt" viewBox="-77 0 512 512.001" width="512pt" xmlns="http://www.w3.org/2000/svg"><path d="m349.019531 186.003906-19.640625-39.277344c-2.820312-5.640624-4.289062-11.863281-4.289062-18.171874v-14.789063h-292.582032v14.789063c0 6.308593-1.46875 12.53125-4.289062 18.171874l-19.636719 39.277344c-5.644531 11.285156-8.582031 23.730469-8.582031 36.347656v265.265626c0 13.46875 10.917969 24.382812 24.382812 24.382812h308.835938c13.464844 0 24.378906-10.914062 24.378906-24.382812v-265.265626c0-12.617187-2.9375-25.0625-8.578125-36.347656zm0 0" fill="#f9eac7"/><path d="m325.089844 128.554688v-14.789063h-292.582032v14.789063c0 6.308593-1.46875 12.53125-4.289062 18.171874l-19.636719 39.277344c-5.644531 11.285156-8.582031 23.730469-8.582031 36.347656v265.265626c0 13.46875 10.917969 24.382812 24.382812 24.382812h81.273438v-289.648438c0-12.617187 1.199219-25.0625 3.507812-36.34375l6.914063-34.773437c1.511719-7.605469 8.183594-13.085937 15.941406-13.085937h194.214844c-.761719-3.132813-1.144531-6.351563-1.144531-9.59375zm0 0" fill="#f4dbb3"/><path d="m333.214844 479.492188c4.492187 0 8.128906-3.640626 8.128906-8.128907v-249.015625c0-10.144531-2.375-20.144531-6.933594-29.207031-1.113281-2.21875-3.882812-3-6.136718-1.964844-10.476563 4.816407-16.824219 11.988281-35.738282 11.988281-28.464844 0-28.464844-16.253906-56.933594-16.253906-28.445312 0-28.445312 16.253906-56.894531 16.253906-28.421875 0-28.421875-16.253906-56.84375-16.253906-28.4375 0-28.4375 16.253906-56.875 16.253906-18.878906 0-25.222656-7.164062-35.675781-11.980468-2.25-1.035156-5.015625-.253906-6.128906 1.957031-4.558594 9.066406-6.929688 19.070313-6.929688 29.214844v249.007812c0 4.488281 3.636719 8.128907 8.125 8.128907zm0 0" fill="#e5646e"/><path d="m105.65625 479.492188v-257.140626c0-11.78125 1.035156-23.324218 3.054688-34.003906-16.320313 3.964844-20.46875 14.816406-43.722657 14.816406-18.875 0-25.222656-7.164062-35.675781-11.980468-2.246094-1.035156-5.015625-.253906-6.125 1.957031-4.558594 9.066406-6.933594 19.070313-6.933594 29.214844v249.007812c0 4.488281 3.640625 8.128907 8.128906 8.128907zm0 0" fill="#db4655"/><path d="m316.960938 48.746094h-276.324219c-8.976563 0-16.253907 7.277344-16.253907 16.257812v48.761719h308.835938v-48.761719c-.003906-8.980468-7.277344-16.257812-16.257812-16.257812zm0 0" fill="#f6d190"/><path d="m333.214844 89.382812h-219.433594v-40.636718h-73.144531c-8.976563 0-16.253907 7.277344-16.253907 16.257812v40.632813h308.835938v-16.253907zm0 0" fill="#ecbd83"/><path d="m24.382812 73.128906h308.835938v16.253906h-308.835938zm0 0" fill="#e5646e"/><path d="m260.070312 422.601562h-162.542968c-17.953125 0-32.507813-14.554687-32.507813-32.511718v-97.527344c0-17.953125 14.554688-32.507812 32.507813-32.507812h162.546875c17.953125 0 32.507812 14.554687 32.507812 32.507812v97.527344c0 17.957031-14.554687 32.511718-32.511719 32.511718zm0 0" fill="#f6d190"/><path d="m208.0625 328.765625c7.503906-7.210937 10.992188-16.949219 10.566406-26.582031-.183594-4.210938-3.585937-7.746094-7.785156-8.101563-9.605469-.808593-19.472656 2.289063-26.976562 9.5-7.503907 7.207031-10.992188 16.945313-10.570313 26.578125.1875 4.210938 3.585937 7.75 7.789063 8.101563 9.605468.8125 19.472656-2.285157 26.976562-9.496094zm0 0" fill="#b3e59f"/><path d="m210.84375 294.082031c-9.605469-.808593-19.476562 2.289063-26.980469 9.5-7.5 7.210938-10.992187 16.945313-10.566406 26.578125.09375 2.105469.992187 4.042969 2.386719 5.5l40.558594-38.972656c-1.398438-1.453125-3.296876-2.425781-5.398438-2.605469zm0 0" fill="#95d6a4"/><path d="m161.285156 304.554688c-8.871094-6.691407-19.730468-8.722657-29.8125-6.644532-4.410156.910156-7.5625 5.09375-7.226562 9.582032.769531 10.265624 5.707031 20.148437 14.578125 26.839843 8.875 6.691407 19.730469 8.722657 29.8125 6.644531 4.410156-.910156 7.566406-5.089843 7.230469-9.582031-.773438-10.265625-5.707032-20.148437-14.582032-26.839843zm0 0" fill="#b3e59f"/><path d="m124.246094 307.492188c.773437 10.265624 5.707031 20.148437 14.582031 26.839843 8.871094 6.691407 19.726563 8.722657 29.8125 6.644531 2.203125-.453124 4.09375-1.726562 5.390625-3.449218l-47.953125-36.167969c-1.296875 1.71875-2 3.886719-1.832031 6.132813zm0 0" fill="#95d6a4"/><path d="m231.625 349.453125c0 13.46875-10.914062 24.382813-24.378906 24.382813-13.46875 0-24.382813-10.914063-24.382813-24.382813 0-13.464844 10.914063-24.378906 24.382813-24.378906 13.464844 0 24.378906 10.914062 24.378906 24.378906zm0 0" fill="#e5646e"/><path d="m216.171875 364.910156c-13.46875 0-24.382813-10.914062-24.382813-24.378906 0-4.433594 1.195313-8.609375 3.261719-12.191406-7.296875 4.210937-12.1875 12.082031-12.1875 21.113281 0 13.46875 10.914063 24.382813 24.382813 24.382813 9.03125 0 16.902344-4.894532 21.113281-12.191407-3.582031 2.070313-7.757813 3.265625-12.1875 3.265625zm0 0" fill="#db4655"/><path d="m198.609375 361.644531c0 15.710938-12.734375 28.445313-28.445313 28.445313-15.710937 0-28.445312-12.734375-28.445312-28.445313 0-15.707031 12.734375-28.445312 28.445312-28.445312 15.710938 0 28.445313 12.738281 28.445313 28.445312zm0 0" fill="#e5646e"/><path d="m105.65625 260.054688h-8.128906c-17.953125 0-32.507813 14.554687-32.507813 32.511718v97.527344c0 17.953125 14.554688 32.507812 32.507813 32.507812h8.128906zm0 0" fill="#ecbd83"/><path d="m341.34375 121.894531h-325.089844c-4.488281 0-8.125-3.640625-8.125-8.128906s3.636719-8.125 8.125-8.125h325.089844c4.488281 0 8.125 3.636719 8.125 8.125.003906 4.488281-3.636719 8.128906-8.125 8.128906zm0 0" fill="#ecbd83"/><path d="m341.34375 121.894531h-227.5625v-16.253906h227.5625c4.488281 0 8.128906 3.636719 8.128906 8.125s-3.640625 8.128906-8.128906 8.128906zm0 0" fill="#f6d190"/><path d="m24.382812 73.128906h81.273438v16.253906h-81.273438zm0 0" fill="#db4655"/><path d="m73.144531 138.148438c-2.078125 0-4.15625-.796876-5.746093-2.382813-3.175782-3.175781-3.175782-8.316406 0-11.492187l97.527343-97.527344c3.175781-3.175782 8.320313-3.175782 11.492188 0 3.175781 3.175781 3.175781 8.320312 0 11.492187l-97.527344 97.527344c-1.585937 1.585937-3.667969 2.382813-5.746094 2.382813zm0 0" fill="#db4655"/><path d="m193.378906 105.382812c-16.058594-16.054687-52.011718-27.171874-64.839844-30.757812-3.582031-12.828125-14.703124-48.777344-30.757812-64.839844-13.046875-13.046875-34.292969-13.046875-47.34375 0-13.046875 13.058594-13.046875 34.296875 0 47.34375 16.0625 16.054688 52.011719 27.175782 64.839844 30.757813 3.585937 12.828125 14.703125 48.777343 30.757812 64.839843 6.523438 6.523438 15.097656 9.785157 23.667969 9.785157s17.152344-3.261719 23.675781-9.785157c13.046875-13.054687 13.046875-34.292968 0-47.34375zm-131.449218-59.746093c-6.714844-6.714844-6.714844-17.644531 0-24.359375 3.359374-3.355469 7.769531-5.03125 12.183593-5.03125 4.40625 0 8.816407 1.675781 12.175781 5.03125 9.871094 9.882812 18.5625 32.050781 23.707032 48.074218-16.015625-5.144531-38.167969-13.820312-48.066406-23.714843zm119.957031 95.597656c-6.707031 6.714844-17.636719 6.722656-24.359375 0-9.871094-9.878906-18.5625-32.046875-23.707032-48.074219 16.015626 5.144532 38.167969 13.820313 48.066407 23.71875 6.714843 6.710938 6.714843 17.640625 0 24.355469zm0 0" fill="#e5646e"/><path d="m180.578125 379.679688c-15.710937 0-28.445313-12.738282-28.445313-28.445313 0-5.171875 1.390626-10.050781 3.804688-14.230469-8.515625 4.917969-14.21875 14.105469-14.21875 24.640625 0 15.710938 12.738281 28.445313 28.445312 28.445313 10.539063 0 19.722657-5.703125 24.636719-14.21875-4.175781 2.414062-9.050781 3.808594-14.222656 3.808594zm0 0" fill="#db4655"/></svg>