<?xml version="1.0" encoding="utf-8"?>
<!-- Generator: Adobe Illustrator 23.0.1, SVG Export Plug-In . SVG Version: 6.00 Build 0)  -->
<svg version="1.1" id="图层_1" xmlns="http://www.w3.org/2000/svg" xmlns:xlink="http://www.w3.org/1999/xlink" x="0px" y="0px"
	 viewBox="0 0 37.6 32" style="enable-background:new 0 0 37.6 32;" xml:space="preserve">
<style type="text/css">
	.st0{fill:#F4EA2A;}
	.st1{fill:#EF1833;}
</style>
<path d="M38.8,12.2L38.8,12.2C38.8,12.3,38.8,12.3,38.8,12.2z M-1.2,12.3l0.1-0.1c-0.1,0.1-0.3,0.2-0.3,0.4L-1.2,12.3z"/>
<path d="M3,32c0,0.1,0,0.1,0,0.2C2.9,32.2,3,32.1,3,32L3,32z M0.9,31.9c0-0.1,0-0.1,0-0.2C0.9,31.8,0.9,31.9,0.9,31.9L0.9,31.9z"/>
<path d="M36.8,31.7c0,0.1,0,0.2,0,0.2C36.9,31.8,36.8,31.7,36.8,31.7L36.8,31.7z M34.7,32.2c0-0.1,0-0.1,0-0.2
	C34.7,32.1,34.7,32.2,34.7,32.2L34.7,32.2z"/>
<path class="st0" d="M31.1,9.8h-1.4l-0.8,4.3h1.3c0.9,0,1.5-0.2,2.1-0.6s0.8-0.9,1-1.7C33.5,10.5,32.8,9.8,31.1,9.8L31.1,9.8z"/>
<g id="XMLID_1_">
	<g>
		<path class="st1" d="M34.2,9.4c0.5,0.6,0.7,1.4,0.5,2.4c-0.2,1.1-0.7,1.9-1.6,2.6c-0.9,0.7-1.9,1-3,0.9h-1.4l-0.7,4.1h-1.4
			l1.9-10.9h3.1C32.7,8.6,33.6,8.9,34.2,9.4z"/>
		<path class="st0" d="M15.2,19.5h1.6l5.9-10.9h-1.5l-3.9,7.7c-0.4,0.5-0.8,1.1-1,1.8l0,0c0-0.1,0-0.2,0-0.3c0-0.3,0-0.5-0.1-0.7
			l-1.4-8.5h-1.6L15.2,19.5z M37.7,8.2v11.7c0,1-0.8,1.8-1.8,1.8H6.4v-2.1c1.2,0,2.3-0.3,3-0.8c0.8-0.5,1.3-1.3,1.4-2.2
			c0.1-0.6,0-1.2-0.3-1.7c-0.3-0.5-1-1-2-1.5c-0.9-0.5-1.5-0.9-1.7-1.1c-0.2-0.3-0.3-0.6-0.3-1.1c0.1-0.5,0.4-0.9,0.8-1.2
			c0.5-0.3,1-0.4,1.7-0.4c1,0,1.8,0.2,2.4,0.7l0.3-1.5c-0.5-0.3-1.2-0.4-2.3-0.4v-2h26.4C36.9,6.4,37.7,7.2,37.7,8.2z M34.7,11.9
			c0.2-1.1,0-1.9-0.5-2.4s-1.4-0.9-2.6-0.9h-3.1l-1.9,10.9h1.4l0.7-4.1h1.4c1.1,0,2.1-0.3,3-0.9C34,13.8,34.5,12.9,34.7,11.9z
			 M26.5,9.8l0.2-1.2h-3.5L23,9.8h1l-1.5,8.5h-1l-0.2,1.2h3.5l0.2-1.2h-1l1.5-8.5H26.5z"/>
		<polygon class="st1" points="26.7,8.6 26.5,9.8 25.4,9.8 23.9,18.3 25,18.3 24.8,19.5 21.2,19.5 21.5,18.3 22.5,18.3 24,9.8 
			23,9.8 23.2,8.6 		"/>
		<path class="st1" d="M22.7,8.6l-5.9,10.9h-1.6l-2-10.9h1.6l1.4,8.5c0,0.2,0.1,0.5,0.1,0.7c0,0.1,0,0.2,0,0.3l0,0
			c0.2-0.7,0.6-1.3,1-1.8l3.9-7.7H22.7z"/>
		<path class="st1" d="M11.8,8.8l-0.3,1.5C11,9.9,10.2,9.6,9.2,9.6c-0.7,0-1.2,0.1-1.7,0.4c-0.5,0.3-0.8,0.7-0.8,1.2
			c-0.1,0.4,0,0.8,0.3,1.1c0.2,0.3,0.8,0.6,1.7,1.1c1,0.5,1.6,1,2,1.5c0.3,0.5,0.4,1.1,0.3,1.7c-0.2,1-0.6,1.7-1.4,2.2
			c-0.8,0.5-1.8,0.8-3,0.8c-0.6,0-1.1-0.1-1.6-0.2c-0.5-0.1-0.8-0.2-1-0.4L4,17.4c0.3,0.3,0.7,0.5,1.2,0.7c0.5,0.2,1,0.3,1.6,0.3
			c1.5,0,2.4-0.5,2.6-1.6c0-0.1,0-0.2,0-0.3c0-0.2-0.1-0.4-0.1-0.6c-0.2-0.4-0.5-0.6-0.8-0.8c-0.1-0.1-0.5-0.3-1.2-0.7
			c-1-0.5-1.6-1.1-1.9-1.5c-0.3-0.5-0.3-1-0.2-1.6c0.2-0.9,0.7-1.6,1.5-2.1c0.8-0.5,1.8-0.8,2.9-0.8C10.6,8.4,11.4,8.5,11.8,8.8z"/>
		<path class="st0" d="M9.5,6.4v2c-1.1,0-2.1,0.3-2.9,0.8c-0.8,0.5-1.3,1.3-1.5,2.1c-0.1,0.6,0,1.1,0.2,1.6c0.3,0.5,0.9,1,1.9,1.5
			c0.7,0.4,1.1,0.6,1.2,0.7c0.4,0.2,0.7,0.5,0.8,0.8c0.1,0.2,0.1,0.4,0.1,0.6c0,0.1,0,0.2,0,0.3c-0.2,1.1-1.1,1.6-2.6,1.6
			c-0.6,0-1.1-0.1-1.6-0.3C4.7,18,4.3,17.7,4,17.4L3.8,19c0.2,0.2,0.6,0.3,1,0.4c0.5,0.1,1.1,0.2,1.6,0.2v2.1H1.8
			c-1,0-1.8-0.8-1.8-1.8V8.2c0-1,0.8-1.8,1.8-1.8H9.5z"/>
	</g>
	<g>
	</g>
</g>
<g id="图层_2">
	<path class="st0" d="M31.1,9.8h-1.4l-0.8,4.3h1.3c0.9,0,1.5-0.2,2.1-0.6s0.8-0.9,1-1.7C33.5,10.5,32.8,9.8,31.1,9.8L31.1,9.8z"/>
</g>
</svg>
