<?xml version="1.0" encoding="utf-8"?>
<!-- Generator: Adobe Illustrator 23.0.1, SVG Export Plug-In . SVG Version: 6.00 Build 0)  -->
<svg version="1.1" xmlns="http://www.w3.org/2000/svg" xmlns:xlink="http://www.w3.org/1999/xlink" x="0px" y="0px"
	 viewBox="0 0 64 64" style="enable-background:new 0 0 64 64;" xml:space="preserve">
<style type="text/css">
	.st0{fill:#FF7E00;}
	.st1{fill:#FFFFFF;}
	.st2{fill:#FF973F;}
</style>
<g id="图层_2">
</g>
<g id="图层_2_x5F_复制">
	<g>
		<g id="XMLID_1_">
			<g>
				<path class="st0" d="M30.3,21.9v27.6c-2.9-0.5-6.2-0.7-9.6-0.7c-3.5,0-6.7,0.2-9.6,0.7V21.9c0-0.6,3.3-2.2,9.6-2.2
					S30.3,21.2,30.3,21.9z M26.9,28.2c0-0.5-0.4-1-1-1H15.4c-0.5,0-1,0.5-1,1c0,0.5,0.4,1,1,1H26C26.5,29.1,26.9,28.7,26.9,28.2z
					 M26.9,34.2c0-0.5-0.4-1-1-1H15.4c-0.5,0-1,0.5-1,1c0,0.5,0.4,1,1,1H26C26.5,35.2,26.9,34.7,26.9,34.2z M26.9,40.3
					c0-0.5-0.4-1-1-1H15.4c-0.5,0-1,0.5-1,1c0,0.5,0.4,1,1,1H26C26.5,41.3,26.9,40.8,26.9,40.3z"/>
				<path class="st0" d="M32.2,21.9v28.7c0,0.3-0.1,0.6-0.3,0.8c-0.1,0.1-0.4,0.2-0.6,0.2h-0.2c-3.1-0.6-6.6-0.8-10.4-0.8
					c-3.8,0-7.3,0.3-10.5,0.8c-0.3,0.1-0.6,0-0.8-0.2c-0.2-0.2-0.3-0.4-0.3-0.8V21.9c0-2.9,5.8-4.2,11.5-4.2
					C26.4,17.8,32.2,19,32.2,21.9z M30.3,49.5V21.9c0-0.7-3.3-2.2-9.6-2.2s-9.6,1.6-9.6,2.2v27.6c2.9-0.5,6.1-0.7,9.6-0.7
					C24.2,48.8,27.4,49,30.3,49.5z"/>
				<path class="st1" d="M26,27.2c0.5,0,1,0.5,1,1c0,0.5-0.4,1-1,1H15.4c-0.5,0-1-0.4-1-1c0-0.5,0.4-1,1-1H26z"/>
				<path class="st1" d="M26,33.2c0.5,0,1,0.5,1,1c0,0.5-0.4,1-1,1H15.4c-0.5,0-1-0.4-1-1c0-0.5,0.4-1,1-1H26z"/>
				<path class="st1" d="M26,39.3c0.5,0,1,0.5,1,1c0,0.5-0.4,1-1,1H15.4c-0.5,0-1-0.4-1-1c0-0.5,0.4-1,1-1H26z"/>
			</g>
		</g>
		<path class="st0" d="M48.1,18.2c-0.5-0.1-1,0.2-1.1,0.8c-0.1,0.5,0.2,1,0.8,1.1c3.4,0.5-14.4,0.7-10.3,0c0.6-0.1,0.9-0.5,0.8-1.1
			c-0.1-0.6-0.6-0.9-1.1-0.8c-3.1,0.5-6.9,1.5-6.9,3.8v28.7c0,0.3,0.1,0.5,0.3,0.7s0.5,0.3,0.8,0.3c4.5-0.6,7.2-0.9,11.2-0.9
			c4,0,8.3,0.3,11.2,0.8H54c0.2,0,0.4-0.1,0.6-0.1c0.2-0.2,0.3-0.5,0.3-0.8V22C54.9,19.7,50.7,18.6,48.1,18.2z"/>
		<g id="XMLID_3_">
			<g>
				<path class="st0" d="M48.7,13.4l0.1,21.5c0,0.7-0.4,1.3-1,1.5c-0.6,0.3-1.3,0.2-1.9-0.3l-3.4-2.9l-3.3,3
					c-0.3,0.3-0.8,0.4-1.2,0.4c-0.2,0-0.5-0.1-0.7-0.1c-0.6-0.3-1-0.9-1-1.5l-0.1-21.6c0-0.5,0.4-1,1-1l10.5,0
					C48.3,12.4,48.7,12.8,48.7,13.4z M46.9,34.5l-0.1-20.1l-8.6,0l0.1,20.2l3.2-2.8c0.6-0.6,1.6-0.6,2.2,0L46.9,34.5z"/>
				<path class="st1" d="M46.8,14.3l0.1,20.1l-3.2-2.7c-0.7-0.6-1.6-0.6-2.2,0l-3.2,2.8l-0.1-20.2L46.8,14.3z"/>
			</g>
			<g>
			</g>
		</g>
		<g>
			<g id="XMLID_2_">
				<g>
					<path class="st2" d="M54.9,35.7v14.9c0,0.3-0.1,0.6-0.3,0.8c-0.1,0.1-0.4,0.1-0.6,0.1h-0.2c-2.9-0.5-7.2-0.8-11.1-0.8
						c-0.2,0-0.3,0-0.5,0c-1.5-1.7-2.4-4-2.4-6.4c0-5.5,4.5-10,10-10C51.7,34.3,53.4,34.9,54.9,35.7z"/>
				</g>
			</g>
		</g>
	</g>
</g>
</svg>
