<?xml version="1.0" encoding="utf-8"?>
<!-- Generator: Adobe Illustrator 23.0.1, SVG Export Plug-In . SVG Version: 6.00 Build 0)  -->
<svg version="1.1" id="图层_3" xmlns="http://www.w3.org/2000/svg" xmlns:xlink="http://www.w3.org/1999/xlink" x="0px" y="0px"
	 viewBox="0 0 64 64" style="enable-background:new 0 0 64 64;" xml:space="preserve">
<style type="text/css">
	.st0{fill:#01C700;}
	.st1{fill:#3DD240;}
</style>
<g>
	<path class="st0" d="M32.3,49.3c0,1.3-0.2,2.6-0.5,3.9c0,0,3.9,0,8.1-0.1c2.2,0,4.6,0,6.5-0.2c1.4-0.2,2.4-0.8,3.1-1.1
		c1-0.4,2.8-1.8,3.9-3.7c0.6-1,0.9-2.2,1.1-3.2c0.4-1.6,0.4-3.6,0.5-5.2c0-2.9,0-5.1,0-5.2V24.2c0-4.5-3-8.4-7.3-9.6
		c-0.3-0.1-0.6,0-0.9,0.2c-0.3,0.2-0.4,0.5-0.4,0.8v1.7c0,1.1-0.9,2.4-3,2.4c-2.1,0-3-1.3-3-2.4v-2.1c0-0.6-0.4-1-1-1H25.1
		c-0.3,0-0.5,0.1-0.7,0.3c-0.2,0.2-0.3,0.4-0.3,0.7v2.1c0,1.1-0.9,2.4-3,2.4s-3-1.3-3-2.4v-1.9c0-0.3-0.1-0.6-0.4-0.8
		c-0.2-0.2-0.5-0.3-0.8-0.2c-4.6,1-7.8,5.1-7.8,9.8v13.4c4.4-3.3,10.3-3.8,15.3-1.4C29.2,38.8,32.3,43.8,32.3,49.3L32.3,49.3z
		 M15.1,27.4v-3.3c0-0.7,0.6-1.3,1.3-1.3h31.1c0.7,0,1.3,0.6,1.3,1.3v3.3c0,0.7-0.6,1.3-1.3,1.3H16.5C15.7,28.8,15.1,28.2,15.1,27.4
		L15.1,27.4z M15.1,27.4"/>
	<path class="st0" d="M45.5,17.2v-4.9c0-0.7-0.5-1.6-2-1.6c-1.5,0-2,0.9-2,1.6v4.9c0,0.7,0.6,1.6,2,1.6
		C44.9,18.8,45.5,17.9,45.5,17.2L45.5,17.2z M23.2,17.2v-4.9c0-0.7-0.5-1.6-2-1.6c-1.5,0-2,0.9-2,1.6v4.9c0,0.7,0.6,1.6,2,1.6
		C22.5,18.8,23.2,17.9,23.2,17.2L23.2,17.2z M23.2,17.2"/>
	<path class="st0" d="M19.1,53.3h12.7c1.7-6-0.7-12.4-5.8-15.9c-5.1-3.5-12-3.4-17,0.3v5.6C9,48.8,13.5,53.3,19.1,53.3L19.1,53.3z
		 M19.1,53.3"/>
	<path class="st1" d="M19.1,53.3h12.7c1.7-6-0.7-12.4-5.8-15.9c-5.1-3.5-12-3.4-17,0.3v5.6C9,48.8,13.5,53.3,19.1,53.3L19.1,53.3z
		 M19.1,53.3"/>
</g>
</svg>
