<?xml version="1.0" encoding="utf-8"?>
<!-- Generator: Adobe Illustrator 23.0.1, SVG Export Plug-In . SVG Version: 6.00 Build 0)  -->
<svg version="1.1" id="图层_1_x5F_复制" xmlns="http://www.w3.org/2000/svg" xmlns:xlink="http://www.w3.org/1999/xlink"
	 x="0px" y="0px" viewBox="0 0 200 200" style="enable-background:new 0 0 200 200;" xml:space="preserve">
<style type="text/css">
	.st0{fill:#A87DFF;}
	.st1{fill:#B997FC;}
</style>
<path class="st0" d="M169.8,50.3c5.4,13.4,2.9,29.5-7.8,40.4c-11.8,12-29.6,13.9-43.4,5.9l-10,11.2l7.1,7.3l4.3-4.4
	c2.2-2.2,5.7-2.2,7.9,0l34.6,35.7c2.2,2.2,2.2,5.8,0,8.1l-15.8,16.1c-2.2,2.2-5.7,2.2-7.9,0l-34.6-35.7c-2.2-2.2-2.2-5.8,0-8.1
	l3.9-4l-6.8-7l-47.8,53.4c-4.4,4.5-11.4,4.5-15.8,0l-3.9-4c-4.4-4.5-4.4-11.7,0-16.1l54.5-46.6l-36.2-37l-11.4,0L27.4,43.7
	l10.6-10.9l21.7,13.6L60,57.9l36.6,37.5l10.6-9.1c-10.4-14.5-9.3-34.9,3.5-48c10.6-10.9,26.2-13.6,39.3-8.1l-23.4,23.6l19.7,20.1
	L169.8,50.3z M46.9,154.8c-2.2-2.2-5.7-2.2-7.9,0c-2.2,2.2-2.2,5.8,0,8.1c2.2,2.2,5.7,2.2,7.9,0C49,160.6,49,157,46.9,154.8z"/>
<g id="图层_1">
	<path class="st1" d="M169.8,50.3l-23.5,23.7l-19.7-20.1L150,30.2c-7.1-3-14.9-3.5-22.3-1.7c-11.9,5.1-20.3,17-20.3,30.8
		c0,18.5,15,33.5,33.5,33.5c13.6,0,25.3-8.1,30.5-19.7C173.3,65.6,172.8,57.5,169.8,50.3z"/>
</g>
</svg>
