<?xml version="1.0" standalone="no"?><!DOCTYPE svg PUBLIC "-//W3C//DTD SVG 1.1//EN" "http://www.w3.org/Graphics/SVG/1.1/DTD/svg11.dtd"><svg t="1566109560296" class="icon" viewBox="0 0 1024 1024" version="1.1" xmlns="http://www.w3.org/2000/svg" p-id="6444" xmlns:xlink="http://www.w3.org/1999/xlink" width="64" height="64"><defs><style type="text/css"></style></defs><path d="M725.2992 409.6l14.336-33.3824a342.4256 342.4256 0 0 0 27.648-134.8608 68.608 68.608 0 0 0-68.608-68.608h-97.3824a29.7984 29.7984 0 0 0-29.7984 29.7984v25.4976a36.352 36.352 0 0 1-33.3824 36.5568 35.0208 35.0208 0 0 1-40.0384-36.5568v-25.9072a29.7984 29.7984 0 0 0-29.7984-29.7984h-92.7744A73.216 73.216 0 0 0 302.2848 245.76a357.2736 357.2736 0 0 0 23.3472 127.0784l15.0528 39.6288A290.5088 290.5088 0 0 1 725.2992 409.6z" fill="#FF7E00" p-id="6445"></path><path d="M245.76 626.7904A287.232 287.232 0 0 0 486.4 911.36a237.9776 237.9776 0 0 1 318.976-183.296 290.816 290.816 0 0 0 18.0224-101.2736A287.5392 287.5392 0 0 0 725.2992 409.6l-6.144 14.2336c-10.24 16.0768-21.4016 21.4016-37.376 16.0768A27.648 27.648 0 0 1 665.6 402.2272a273.5104 273.5104 0 0 0-73.216-24.7808A321.2288 321.2288 0 0 0 442.368 391.168a183.3984 183.3984 0 0 0-49.664 22.3232c-15.36 11.4688-25.7024 25.088-36.4544 22.2208a19.8656 19.8656 0 0 1-11.3664-11.9808l-4.3008-11.264A287.6416 287.6416 0 0 0 245.76 626.7904z m287.744-112.64a112.64 112.64 0 1 1 0 224.5632 112.64 112.64 0 0 1 0-224.5632z" fill="#FF7E00" p-id="6446"></path><path d="M533.9136 686.08a58.7776 58.7776 0 1 0-58.7776-58.7776A59.2896 59.2896 0 0 0 533.9136 686.08zM356.352 435.6096c10.24 2.9696 21.0944-10.24 36.4544-22.2208a183.3984 183.3984 0 0 1 49.5616-22.2208 321.2288 321.2288 0 0 1 150.1184-13.6192A273.5104 273.5104 0 0 1 665.6 402.2272a27.648 27.648 0 0 0 16.0768 37.376c16.0768 5.3248 26.7264 0 37.376-16.0768l6.144-14.2336a290.5088 290.5088 0 0 0-384.6144 3.072l4.3008 11.264a19.8656 19.8656 0 0 0 11.4688 11.9808z" fill="#FF7E00" p-id="6447"></path><path d="M533.9136 739.0208a112.64 112.64 0 1 0 0-224.5632 112.64 112.64 0 0 0 0 224.5632z m0-171.1104a58.7776 58.7776 0 1 1-58.7776 58.7776 59.2896 59.2896 0 0 1 58.7776-58.6752z" fill="#FFFFFF" p-id="6448"></path><path d="M486.4 911.36a294.7072 294.7072 0 0 0 48.3328 3.9936A287.3344 287.3344 0 0 0 805.376 728.064 237.9776 237.9776 0 0 0 486.4 911.36z" fill="#FF7E00" p-id="6449"></path><path d="M486.4 911.36a294.7072 294.7072 0 0 0 48.3328 3.9936A287.3344 287.3344 0 0 0 805.376 728.064 237.9776 237.9776 0 0 0 486.4 911.36z" fill="#FD973F" p-id="6450"></path></svg>