<?xml version="1.0" encoding="utf-8"?>
<!-- Generator: Adobe Illustrator 23.0.1, SVG Export Plug-In . SVG Version: 6.00 Build 0)  -->
<svg version="1.1" id="图层_1" xmlns="http://www.w3.org/2000/svg" xmlns:xlink="http://www.w3.org/1999/xlink" x="0px" y="0px"
	 viewBox="0 0 64 64" style="enable-background:new 0 0 64 64;" xml:space="preserve">
<style type="text/css">
	.st0{fill:#FFBA00;}
	.st1{fill:#FFFFFF;}
	.st2{fill:#FEC744;}
</style>
<g>
	<path class="st0" d="M38.8,10.1c-0.6,1.2-1,2.5-1.2,3.8H23.3c-1.2,0-1.9,0.7-1.9,1.1v4.1h-3.8V15c0-2.7,2.6-4.9,5.8-4.9H38.8z"/>
	<path class="st0" d="M39.4,22.1H8.9c-1.1,0-1.9-0.9-1.9-1.9s0.9-1.9,1.9-1.9c0,0,0,0,0,0h28.9C38.1,19.7,38.6,21,39.4,22.1z"/>
	<path class="st0" d="M49.3,27.4c-4,0-7.6-2-9.8-5.3c-0.8-1.2-1.3-2.5-1.6-3.8H15.6c-1.1,0-1.9,0.9-1.9,1.9v26
		c0,4.2,3.5,7.7,7.7,7.7h21.2c4.2,0,7.7-3.5,7.7-7.7V27.4C49.9,27.4,49.6,27.4,49.3,27.4z"/>
	<path class="st0" d="M46.4,22.1v24.1c0,2.1-1.7,3.8-3.8,3.8H21.4c-2.1,0-3.8-1.7-3.8-3.8V22.1H46.4z"/>
	<path class="st1" d="M36.8,25c-1.1,0-1.9,0.9-1.9,1.9v18.8c0,1.1,0.9,1.9,1.9,1.9c1.1,0,1.9-0.9,1.9-1.9V27
		C38.7,25.9,37.9,25,36.8,25z M27.2,25c-1.1,0-1.9,0.9-1.9,1.9v18.8c0,1.1,0.9,1.9,1.9,1.9c1.1,0,1.9-0.9,1.9-1.9V27
		C29.1,25.9,28.2,25,27.2,25z"/>
	<g id="图层_2_复制">
		<path class="st2" d="M57,20.2c0,1.1-0.9,1.9-1.9,1.9c0,0,0,0,0,0h-4.8v5.3c-0.3,0-0.7,0-1,0c-4,0-7.6-2-9.8-5.3
			c-0.8-1.2-1.3-2.5-1.6-3.8h4.8V15c0-0.4-0.8-1.1-1.9-1.1h-3.1c0.2-1.3,0.6-2.6,1.2-3.8h1.8c3.2,0,5.8,2.2,5.8,4.9v3.3h8.7
			C56.2,18.3,57,19.2,57,20.2z"/>
	</g>
</g>
</svg>
