<?xml version="1.0" encoding="utf-8"?>
<!-- Generator: Adobe Illustrator 23.0.1, SVG Export Plug-In . SVG Version: 6.00 Build 0)  -->
<svg version="1.1" id="图层_1" xmlns="http://www.w3.org/2000/svg" xmlns:xlink="http://www.w3.org/1999/xlink" x="0px" y="0px"
	 viewBox="0 0 64 64" style="enable-background:new 0 0 64 64;" xml:space="preserve">
<style type="text/css">
	.st0{fill:#FF7E00;}
	.st1{fill:#01C700;}
	.st2{fill:#FD973F;}
</style>
<path class="st0" d="M36.8,39.2c-0.1-0.1-0.2-0.2-0.4-0.2c-1,0-1.9,0.1-2.8,0.4c-0.8,0.3-1.6,0.7-2.3,1.2c-0.8,0.6-1.4,1.2-2.1,1.9
	C29.1,42.7,29,42.8,29,43c0,0.3,0.3,0.6,0.6,0.6c0.1,0,0.3-0.1,0.4-0.2c0.2-0.1,0.4-0.4,0.6-0.6l0.6-0.6c0.7-0.7,1.5-1.2,2.4-1.5
	c0.9-0.3,1.8-0.5,2.8-0.5c0.3,0,0.6-0.3,0.6-0.6C36.9,39.5,36.9,39.3,36.8,39.2z"/>
<path class="st0" d="M49.8,24.6c0-0.2,0-0.3,0-0.5v-6.7c-0.1-1.6-1.6-2.9-3.2-2.7c-1.5,0.1-2.6,1.3-2.7,2.7v2.3l-7.7-6.3
	c-1.6-1.4-4-1.4-5.5,0l-8.7,7C27,27,26,36.4,19.6,41.5c-0.9,0.7-1.8,1.3-2.9,1.8v4.9c0,3.3,2.3,5.4,5.7,5.4h22
	c3.1,0,5.6-1.6,5.7-5.4V36.4l5.6-2c1.4-1.1,1.6-3.1,0.4-4.5c-0.1-0.2-0.3-0.3-0.4-0.4L49.8,24.6z M41.4,37.9c0,0.6-0.1,1.1-0.2,1.7
	C41,40.8,40.5,42,39.6,43c-0.9,1-2,1.8-3.2,2.4c-1.2,0.6-2.5,0.9-3.8,1c-0.9,0-1.7-0.1-2.6-0.4c-0.1,0-0.3-0.2-0.8-0.4
	c-0.3-0.2-0.5-0.3-0.8-0.3c-0.1,0-0.2,0.1-0.3,0.3c-0.1,0.2-0.3,0.4-0.4,0.6c-0.1,0.2-0.3,0.4-0.5,0.6c-0.1,0.2-0.3,0.3-0.5,0.3
	c-0.2,0-0.3,0-0.4-0.1c-0.1-0.1-0.2-0.1-0.3-0.2c-0.1-0.1-0.2-0.2-0.2-0.4l-0.1-0.1l0-0.1c0,0,0-0.1,0-0.1c0,0,0-0.1,0-0.1
	c0-0.2,0.1-0.5,0.3-0.6c0.2-0.2,0.4-0.4,0.6-0.6c0.2-0.2,0.4-0.3,0.6-0.5c0.2-0.2,0.3-0.3,0.3-0.4c0-0.1-0.1-0.2-0.1-0.3
	c-0.1-0.1-0.1-0.3-0.1-0.4c-0.1-0.3-0.1-0.6-0.1-0.9c0-0.7,0.1-1.3,0.4-1.9c0.2-0.6,0.6-1.2,1-1.6c0.4-0.5,1-0.9,1.5-1.2
	c0.5-0.4,1.1-0.6,1.7-0.9c0.4-0.1,0.8-0.2,1.3-0.2c0.5,0,1.1-0.1,1.6-0.1c0.5,0,1,0,1.6-0.1c0.5,0,1-0.1,1.4-0.2
	c0.4-0.1,0.7-0.3,1-0.5l0.3-0.3l0.3-0.2c0.2-0.2,0.3-0.2,0.2-0.2c0,0,0.1,0,0.3-0.1s0.4-0.2,0.4,0c0.3,0,0.5,0.2,0.6,0.4
	c0.2,0.3,0.3,0.6,0.4,1c0.1,0.4,0.2,0.8,0.2,1.1C41.4,37.3,41.5,37.6,41.4,37.9L41.4,37.9z"/>
<path class="st1" d="M25.2,29.8c0-3.4-1.1-6.6-3.3-9.3L11.5,29c-1.4,1.1-1.5,3.1-0.4,4.5c0.1,0.2,0.3,0.3,0.4,0.4l5.3,1.9v7.4
	C21.9,40.8,25.2,35.6,25.2,29.8z"/>
<path class="st2" d="M25.2,29.8c0-3.4-1.1-6.6-3.3-9.3L11.5,29c-1.4,1.1-1.5,3.1-0.4,4.5c0.1,0.2,0.3,0.3,0.4,0.4l5.3,1.9v7.4
	C21.9,40.8,25.2,35.6,25.2,29.8z"/>
</svg>
