<?xml version="1.0" encoding="utf-8"?>
<!-- Generator: Adobe Illustrator 23.0.1, SVG Export Plug-In . SVG Version: 6.00 Build 0)  -->
<svg version="1.1" xmlns="http://www.w3.org/2000/svg" xmlns:xlink="http://www.w3.org/1999/xlink" x="0px" y="0px"
	 viewBox="0 0 64 64" style="enable-background:new 0 0 64 64;" xml:space="preserve">
<style type="text/css">
	.st0{display:none;}
	.st1{display:inline;fill:#A87DFF;}
	.st2{display:inline;fill:#FFFFFF;}
	.st3{display:inline;fill:#B997FC;}
	.st4{opacity:0.95;fill:#A87DFF;}
	.st5{fill:#A87DFF;}
	.st6{opacity:0.95;fill:#FFFFFF;}
	.st7{fill:#B997FC;}
</style>
<g id="图层_1" class="st0">
	<path class="st1" d="M43.6,55.4c1.1,0,2.2-0.7,2.6-1.7c1,0.5,2.2,0.2,3-0.6l0.2-0.2c0.8-0.8,1-2,0.6-3c1.4-0.6,2.1-2.3,1.5-3.8
		c-0.3-0.7-0.8-1.2-1.5-1.5c0.5-1,0.2-2.2-0.6-3l-0.2-0.2c-0.8-0.8-2-1-3-0.6c-0.5-1-1.5-1.7-2.6-1.7c-1.1,0-2.2,0.7-2.6,1.7
		c-1-0.5-2.2-0.2-3,0.6l-0.2,0.2c-0.8,0.8-1,2-0.6,3c-1.4,0.6-2.1,2.3-1.5,3.8c0.3,0.7,0.8,1.2,1.5,1.5c-0.5,1-0.3,2.2,0.5,3
		l0.2,0.2c0.8,0.8,2,1,3,0.6C41.4,54.7,42.5,55.4,43.6,55.4z M41,45.3c0.2-0.3,0.4-0.5,0.6-0.6c0.6-0.4,1.3-0.6,2-0.6
		c2.4,0,4.3,2.7,2.6,5.3c-0.2,0.3-0.4,0.5-0.6,0.6c-0.6,0.4-1.3,0.6-2,0.6C41.2,50.6,39.3,47.8,41,45.3L41,45.3z"/>
	<path class="st1" d="M9.7,32c1,5.7,4.5,10.7,9.6,13.6c0.8,0.4,1.1,1.4,0.9,2.2c-1.2,1.6-1.8,4.5-2.1,6c-0.1,0.5,0.3,1,0.8,1.1
		c0.1,0,0.1,0,0.2,0l17.7,0h0.1c0.1,0,0.2-0.1,0.1-0.2c0,0,0-0.1,0-0.1c-0.1,0-0.1-0.1-0.2-0.1l-0.3-0.2c-0.9-0.9-1.3-2-1.3-3.2
		v-0.3c-1.9-1.8-2-4.8-0.2-6.7c0.1-0.1,0.1-0.1,0.2-0.2v-0.3c0-1.2,0.5-2.4,1.3-3.3l0.2-0.2c0.9-0.9,2-1.3,3.2-1.3h0.3
		c0.9-0.9,2.1-1.5,3.4-1.5c0.6,0,1.2,0.1,1.8,0.4c0.5,0.2,1,0,1.2-0.4c1.4-2.9,2.1-6.1,2-9.4C48.2,17,39.1,8.6,28.3,9
		c-2.6,0.1-5.2,0.7-7.6,1.8c3.6,7.4,0.6,16.3-6.8,19.9C12.6,31.4,11.2,31.8,9.7,32z M24.4,31c0.5,0,0.9,0.2,1.2,0.6
		c0.5-0.5,1.3-0.6,1.8-0.1c0.3,0.2,0.4,0.6,0.4,0.9c0,1.5,1.2,2.8,2.6,2.9c1.1-0.5,1.9-1.7,1.9-2.9c0-0.8,0.6-1.4,1.4-1.4
		c0.3,0,0.6,0.1,0.8,0.2c0.1,0,0.2-0.1,0.3-0.1c0.7,0,1.3,0.6,1.3,1.3c0,2.5-1.7,4.7-4.1,5.3c-2.9,1.6-6.6,0.6-8.3-2.3
		c-0.5-0.9-0.8-1.9-0.8-3C22.9,31.7,23.6,31,24.4,31C24.4,31,24.4,31,24.4,31L24.4,31z"/>
	<path class="st1" d="M35.1,32.4c0,2.2-1.2,4.2-3.1,5.3c2.4-0.6,4.1-2.8,4.1-5.3c0-0.7-0.6-1.3-1.3-1.3c-0.1,0-0.2,0-0.3,0.1
		C34.9,31.5,35.1,32,35.1,32.4z M29,35.7c0.5,0,1-0.1,1.4-0.3c-1.5-0.1-2.6-1.4-2.6-2.9c0-0.7-0.6-1.3-1.3-1.2
		c-0.3,0-0.7,0.2-0.9,0.4c0.2,0.2,0.2,0.5,0.2,0.8C25.8,34.2,27.2,35.7,29,35.7z"/>
	<path class="st2" d="M29,38.5c1,0,2.1-0.3,3-0.8c-2.9,0.7-5.8-1-6.6-3.9c-0.1-0.4-0.2-0.9-0.2-1.4c0-0.3,0.1-0.6,0.3-0.8
		c-0.4-0.7-1.3-0.8-2-0.4C23.2,31.5,23,32,23,32.4C23,35.8,25.7,38.5,29,38.5z M33.6,32.5c0-0.6,0.4-1.1,0.9-1.2
		c-0.6-0.4-1.5-0.3-2,0.4c-0.2,0.2-0.2,0.5-0.2,0.8c0,1.3-0.7,2.4-1.9,2.9h0.2C32.3,35.4,33.6,34.1,33.6,32.5z"/>
	<path class="st2" d="M30.7,37.9c0.4,0,0.9,0,1.3-0.2c1.9-1.1,3.1-3.1,3.1-5.3c0-0.5-0.2-0.9-0.6-1.2c-0.5,0.2-0.9,0.7-0.9,1.2
		c0,1.6-1.3,2.9-2.9,2.9h-0.2c-1.6,0.8-3.5,0.1-4.3-1.5c-0.2-0.4-0.3-0.9-0.3-1.4c0-0.3-0.1-0.5-0.2-0.8c-0.2,0.2-0.3,0.5-0.3,0.8
		C25.2,35.5,27.7,37.9,30.7,37.9z"/>
	<path class="st3" d="M9.4,28.6c0,1.2,0.1,2.3,0.3,3.5c8.1-1.3,13.6-8.9,12.3-17c-0.2-1.5-0.7-2.9-1.3-4.2C13.8,14,9.4,21,9.4,28.6z
		"/>
</g>
<g id="图层_2">
</g>
<g id="图层_3">
	<g>
		<g>
			<path class="st4" d="M52,23.3c-7.5,0-13.5-6-13.5-13.5c0-0.3,0-0.6,0-0.9H15.9c-2.6,0-4.8,2.1-4.8,4.8v36.5
				c0,2.6,2.2,4.8,4.8,4.8h32.1c2.6,0,4.8-2.2,4.8-4.8v-27C52.6,23.3,52.3,23.3,52,23.3z"/>
			<g id="XMLID_1_">
				<g>
					<path class="st5" d="M47.5,15.4v33.2c0,0.6-0.5,1.1-1,1.1H17.6c-0.6,0-1.1-0.5-1.1-1.1V15.4c0-0.6,0.5-1.1,1.1-1.1h28.8
						C47,14.3,47.5,14.8,47.5,15.4z"/>
				</g>
				<g>
				</g>
			</g>
			<path class="st6" d="M44.1,44.1H19.9c-0.6,0-1.1,0.5-1.1,1.1c0,0.6,0.5,1.1,1.1,1.1h24.1c0.6,0,1.1-0.5,1.1-1.1
				C45.1,44.5,44.7,44.1,44.1,44.1z M44.1,30.5h-8.8c-0.6,0-1.1,0.5-1.1,1.1c0,0.6,0.5,1.1,1.1,1.1h8.8c0.6,0,1.1-0.5,1.1-1.1
				C45.2,31,44.7,30.5,44.1,30.5z M44.1,37.5H19.9c-0.6,0-1.1,0.5-1.1,1.1c0,0.6,0.5,1.1,1.1,1.1h24.1c0.6,0,1.1-0.5,1.1-1.1
				C45.1,38,44.7,37.5,44.1,37.5z M39.5,22.3v-3.6h-1.8v3.6h-3.5V24h3.5v3.5h1.8V24h3.5v-1.7H39.5z M26.6,17.8h-2.1l-5.7,14.9H21
				l2.2-2.9h4.4l2.6,2.9h2.1L26.6,17.8z M23,26.9l2.2-6.2c0.1-0.2,0.2-0.6,0.2-1h0c0.1,0.5,0.2,0.8,0.2,1l2.3,6.2H23z"/>
		</g>
		<path class="st7" d="M52.8,13.8v9.5c-0.3,0-0.6,0-0.9,0c-7.5,0-13.5-6-13.5-13.5c0-0.3,0-0.6,0-0.9h9.5
			C50.7,9,52.8,11.1,52.8,13.8z"/>
	</g>
</g>
</svg>
