<?xml version="1.0" encoding="utf-8"?>
<!-- Generator: Adobe Illustrator 23.0.1, SVG Export Plug-In . SVG Version: 6.00 Build 0)  -->
<svg version="1.1" xmlns="http://www.w3.org/2000/svg" xmlns:xlink="http://www.w3.org/1999/xlink" x="0px" y="0px"
	 viewBox="0 0 64 64" style="enable-background:new 0 0 64 64;" xml:space="preserve">
<style type="text/css">
	.st0{fill:#A87DFF;}
	.st1{fill:#B997FC;}
</style>
<g id="图层_2_x5F_复制_x5F_2">
</g>
<g id="图层_2">
	<g>
		<g>
			<path class="st0" d="M44.7,32.5h-7.8l-2.2-6.6c-0.6-2.4-2.1-3.9-3.8-4.5c-1.1,0.7-2.4,1.1-3.8,1.1c-0.8,0-1.5-0.1-2.2-0.3
				c-1.8,1.2-2.9,3.3-2.5,6.1l3,8.5c0.6,2.8,2.9,4.8,6.1,4.8h9.9V51c0,2.6,1.9,4.4,4.4,4.4c2.4,0,4.4-1.7,4.4-4.3V38
				C50.2,35.1,48,32.6,44.7,32.5z"/>
			<path class="st0" d="M36.8,42.2h-7c-2.6,0-2.9-0.2-3.5-1.3c-0.1-0.3-0.3-0.6-0.5-1c-0.1-0.2-0.5-1.3-0.6-1.5
				c-1.6-4.1-3.3-8.1-4.9-12.2c-1.8-3.9-7.6-1.6-6.3,2.1l4.7,12.4c0,0,0.8,2.2,1,2.7c0.3,0.9,0.6,1.5,0.9,2.1c1.5,3,3.1,3.7,7.8,3.7
				h8.4c2.1,0,3.5-1.6,3.5-3.5C40.4,43.8,38.9,42.2,36.8,42.2z"/>
			<path class="st0" d="M30.9,21.4c0.9-0.6,1.7-1.4,2.3-2.4c1.3-2.2,1.3-4.8,0-7c-1.3-2.2-3.6-3.5-6.1-3.5c-3.9,0-7,3.1-7,7
				c0,3.1,2,5.7,4.9,6.6c0.7,0.2,1.4,0.3,2.2,0.3C28.5,22.5,29.8,22.1,30.9,21.4z"/>
		</g>
		<g>
			<g id="XMLID_1_">
				<g>
					<path class="st1" d="M37,41.5C37,41.5,37,41.5,37,41.5l-5.5,0.1c-3.2,0-5.6-2-6.1-4.8l-1.9-5.5c0.9-0.3,1.9-0.4,2.9-0.4
						C32.2,30.8,37,35.6,37,41.5z"/>
					<path class="st1" d="M36.7,42.2c0.1,0,0.2,0,0.2,0c-0.2,2.8-1.4,5.2-3.3,7h-5.4c-4.7,0-6.3-0.7-7.8-3.7
						c-0.3-0.6-0.5-1.2-0.9-2.1c-0.2-0.5-1-2.7-1-2.7L17,36.3c1.2-2.2,3.1-3.9,5.4-4.8c0.9,2.2,1.8,4.5,2.7,6.8
						c0.1,0.2,0.5,1.2,0.6,1.5c0.2,0.5,0.3,0.8,0.5,1c0.6,1.2,0.9,1.4,3.5,1.4H36.7z"/>
				</g>
				<g>
				</g>
			</g>
		</g>
	</g>
</g>
</svg>
