<?xml version="1.0" encoding="utf-8"?>
<!-- Generator: Adobe Illustrator 23.0.1, SVG Export Plug-In . SVG Version: 6.00 Build 0)  -->
<svg version="1.1" id="图层_1" xmlns="http://www.w3.org/2000/svg" xmlns:xlink="http://www.w3.org/1999/xlink" x="0px" y="0px"
	 viewBox="0 0 64 64" style="enable-background:new 0 0 64 64;" xml:space="preserve">
<style type="text/css">
	.st0{fill:#01C700;}
	.st1{fill:#3DD240;}
	.st2{fill:#FFFFFF;}
</style>
<g>
	<path class="st0" d="M45,55.2c1.1,0,2.2-0.7,2.6-1.7c1,0.5,2.2,0.2,3-0.6l0.2-0.2c0.8-0.8,1-2,0.6-3c1.4-0.6,2.1-2.3,1.5-3.8
		c-0.3-0.7-0.8-1.2-1.5-1.5c0.5-1,0.2-2.2-0.6-3l-0.2-0.2c-0.8-0.8-2-1-3-0.6c-0.5-1-1.5-1.7-2.6-1.7c-1.1,0-2.2,0.7-2.6,1.7
		c-1-0.5-2.2-0.2-3,0.6l-0.2,0.2c-0.8,0.8-1,2-0.6,3c-1.4,0.6-2.1,2.3-1.5,3.8c0.3,0.7,0.8,1.2,1.5,1.5c-0.5,1-0.3,2.2,0.5,3
		l0.2,0.2c0.8,0.8,2,1,3,0.6C42.9,54.6,43.9,55.2,45,55.2z M42.4,45.1c0.2-0.3,0.4-0.5,0.6-0.6c0.6-0.4,1.3-0.6,2-0.6
		c2.4,0,4.3,2.7,2.6,5.3c-0.2,0.3-0.4,0.5-0.6,0.6c-0.6,0.4-1.3,0.6-2,0.6C42.6,50.4,40.8,47.7,42.4,45.1L42.4,45.1z"/>
	<path class="st0" d="M11.1,31.9c1,5.7,4.5,10.7,9.6,13.6c0.8,0.4,1.1,1.4,0.9,2.2c-1.2,1.6-1.8,4.5-2.1,6c-0.1,0.5,0.3,1,0.8,1.1
		c0.1,0,0.1,0,0.2,0l17.7,0h0.1c0.1,0,0.2-0.1,0.1-0.2c0,0,0-0.1,0-0.1c-0.1,0-0.1-0.1-0.2-0.1l-0.3-0.2c-0.9-0.9-1.3-2-1.3-3.2
		v-0.3c-1.9-1.8-2-4.8-0.2-6.7c0.1-0.1,0.1-0.1,0.2-0.2v-0.3c0-1.2,0.5-2.4,1.3-3.3l0.2-0.2c0.9-0.9,2-1.3,3.2-1.3h0.3
		c0.9-0.9,2.1-1.5,3.4-1.5c0.6,0,1.2,0.1,1.8,0.4c0.5,0.2,1,0,1.2-0.4c1.4-2.9,2.1-6.1,2-9.4C49.7,16.8,40.5,8.4,29.7,8.8
		c-2.6,0.1-5.2,0.7-7.6,1.8c3.6,7.4,0.6,16.3-6.8,19.9C14,31.2,12.6,31.6,11.1,31.9z M25.8,30.9c0.5,0,0.9,0.2,1.2,0.6
		c0.5-0.5,1.3-0.6,1.8-0.1c0.3,0.2,0.4,0.6,0.4,0.9c0,1.5,1.2,2.8,2.6,2.9c1.1-0.5,1.9-1.7,1.9-2.9c0-0.8,0.6-1.4,1.4-1.4
		c0.3,0,0.6,0.1,0.8,0.2c0.1,0,0.2-0.1,0.3-0.1c0.7,0,1.3,0.6,1.3,1.3c0,2.5-1.7,4.7-4.1,5.3c-2.9,1.6-6.6,0.6-8.3-2.3
		c-0.5-0.9-0.8-1.9-0.8-3C24.4,31.5,25,30.9,25.8,30.9C25.8,30.9,25.8,30.9,25.8,30.9L25.8,30.9z"/>
	<path class="st1" d="M36.5,32.3c0,2.2-1.2,4.2-3.1,5.3c2.4-0.6,4.1-2.8,4.1-5.3c0-0.7-0.6-1.3-1.3-1.3c-0.1,0-0.2,0-0.3,0.1
		C36.3,31.4,36.5,31.8,36.5,32.3z M30.5,35.5c0.5,0,1-0.1,1.4-0.3c-1.5-0.1-2.6-1.4-2.6-2.9c0-0.7-0.6-1.3-1.3-1.2
		c-0.3,0-0.7,0.2-0.9,0.4c0.2,0.2,0.2,0.5,0.2,0.8C27.2,34.1,28.7,35.5,30.5,35.5z"/>
	<path class="st2" d="M30.5,38.4c1,0,2.1-0.3,3-0.8c-2.9,0.7-5.8-1-6.6-3.9c-0.1-0.4-0.2-0.9-0.2-1.4c0-0.3,0.1-0.6,0.3-0.8
		c-0.4-0.7-1.3-0.8-2-0.4c-0.4,0.3-0.6,0.7-0.6,1.2C24.4,35.6,27.1,38.4,30.5,38.4z M35,32.3c0-0.6,0.4-1.1,0.9-1.2
		c-0.6-0.4-1.5-0.3-2,0.4c-0.2,0.2-0.2,0.5-0.2,0.8c0,1.3-0.7,2.4-1.9,2.9h0.2C33.7,35.2,35,33.9,35,32.3z"/>
	<path class="st2" d="M32.1,37.8c0.4,0,0.9,0,1.3-0.2c1.9-1.1,3.1-3.1,3.1-5.3c0-0.5-0.2-0.9-0.6-1.2c-0.5,0.2-0.9,0.7-0.9,1.2
		c0,1.6-1.3,2.9-2.9,2.9h-0.2c-1.6,0.8-3.5,0.1-4.3-1.5c-0.2-0.4-0.3-0.9-0.3-1.4c0-0.3-0.1-0.5-0.2-0.8c-0.2,0.2-0.3,0.5-0.3,0.8
		C26.7,35.3,29.1,37.8,32.1,37.8z"/>
	<path class="st1" d="M10.8,28.4c0,1.2,0.1,2.3,0.3,3.5c8.1-1.3,13.6-8.9,12.3-17c-0.2-1.5-0.7-2.9-1.3-4.2
		C15.2,13.9,10.8,20.8,10.8,28.4z"/>
</g>
</svg>
