<?xml version="1.0" encoding="utf-8"?>
<!-- Generator: Adobe Illustrator 23.0.1, SVG Export Plug-In . SVG Version: 6.00 Build 0)  -->
<svg version="1.1" id="图层_1" xmlns="http://www.w3.org/2000/svg" xmlns:xlink="http://www.w3.org/1999/xlink" x="0px" y="0px"
	 viewBox="0 0 200 200" style="enable-background:new 0 0 200 200;" xml:space="preserve">
<style type="text/css">
	.st0{fill:#01C700;}
	.st1{fill:#FFFFFF;}
	.st2{fill:#1082FF;}
	.st3{fill:#3DD240;}
</style>
<path class="st0" d="M107.8,121.1l-1.5-0.8c-1.9-1-4.1-1-6,0l-10,5.3c-3.1,1.7-7,0.5-8.6-2.6c-0.7-1.2-0.9-2.7-0.7-4.1l1.9-11.2
	c0.3-2.1-0.3-4.2-1.9-5.6l-8.2-7.9c-2.5-2.4-2.6-6.5-0.2-9c1-1,2.3-1.7,3.7-1.9l11.2-1.7c2.1-0.3,3.9-1.6,4.8-3.5l5-10.2
	c1.6-3.2,5.4-4.5,8.5-2.9c1.3,0.6,2.3,1.6,2.9,2.9l5.2,10.1c0.9,1.9,2.7,3.2,4.8,3.5l11.2,1.6c3.5,0.6,5.8,3.8,5.3,7.3
	c-0.2,1.3-0.8,2.5-1.8,3.5l-8.1,8c-1.1,1.1-1.8,2.6-1.9,4.2c13.8-8,30.8-8.3,44.9-0.8c2-9.5,3-19.2,3-29V53.7
	c-0.1-2.6-1.4-5.1-3.5-6.6c-2.1-1.6-4.6-2.5-7.3-2.5H160c-0.1,0-1.9,0.1-4.5,0.1c-7.2,0-14.3-0.6-21.3-2
	c-10.6-2.2-22.9-12.5-26.4-14.5c-3.7-2-8.2-2-11.9,0c-0.4,0.3-13.3,12-25.8,14.6c-7.1,1.4-14.3,2-21.5,2c-2.7,0-4.4,0-4.6-0.1h-0.7
	c-2.6,0-5.1,0.9-7.2,2.4c-2.1,1.6-3.3,4-3.4,6.6v22.7c0,84,64.6,94.8,67.3,95.2c0.6,0.1,1.3,0.1,1.9,0.1c0.6,0,1.3,0,1.9-0.1
	c0.3,0,1.6-0.3,3.6-0.7c-9.5-15.3-9.3-34.7,0.5-49.7H107.8z"/>
<path class="st1" d="M107.8,121.1l8.6,4.5c3.1,1.6,7,0.4,8.6-2.7c0.7-1.2,0.9-2.7,0.6-4.1l-2-11.2c-0.1-0.5-0.1-1,0-1.5
	C117.2,109.9,111.8,115,107.8,121.1L107.8,121.1z"/>
<path class="st2" d="M168.5,105.3c-14.1-7.5-31.1-7.1-44.9,0.8c-0.1,0.5-0.1,1,0,1.5l2,11.2c0.6,3.5-1.7,6.8-5.2,7.4
	c-1.4,0.2-2.8,0-4.1-0.6l-8.6-4.5c-9.8,15.1-10,34.5-0.5,49.7C119.3,168,157.5,154.8,168.5,105.3L168.5,105.3z"/>
<path class="st3" d="M168.5,105.3c-14.1-7.5-31.1-7.1-44.9,0.8c-0.1,0.5-0.1,1,0,1.5l2,11.2c0.6,3.5-1.7,6.8-5.2,7.4
	c-1.4,0.2-2.8,0-4.1-0.6l-8.6-4.5c-9.8,15.1-10,34.5-0.5,49.7C119.3,168,157.5,154.8,168.5,105.3L168.5,105.3z"/>
</svg>
