<?xml version="1.0" encoding="utf-8"?>
<!-- Generator: Adobe Illustrator 23.0.1, SVG Export Plug-In . SVG Version: 6.00 Build 0)  -->
<svg version="1.1" xmlns="http://www.w3.org/2000/svg" xmlns:xlink="http://www.w3.org/1999/xlink" x="0px" y="0px"
	 viewBox="0 0 64 64" style="enable-background:new 0 0 64 64;" xml:space="preserve">
<style type="text/css">
	.st0{fill:#1082FF;}
	.st1{fill:#FFFFFF;}
	.st2{fill:#459CFC;}
</style>
<g id="图层_2_x5F_复制">
	<g>
		<g id="XMLID_6_">
			<g>
				<path class="st0" d="M53.8,32.7v12.4c0,2.5-2,4.4-4.5,4.4H36.5c-2.5,0-4.5-2-4.5-4.4V32.7c0-2.5,2-4.4,4.5-4.4h12.7
					C51.7,28.3,53.8,30.3,53.8,32.7z"/>
			</g>
			<g>
			</g>
		</g>
		<path class="st0" d="M27.5,38.8H15.4c-4.3,0-7.8-3.5-7.8-7.8v-12c0-4.3,3.5-7.8,7.8-7.8h12.1c4.3,0,7.8,3.5,7.8,7.8v12
			C35.1,35.3,31.8,38.8,27.5,38.8z"/>
		<g id="XMLID_5_">
			<g>
				<path class="st0" d="M31.8,19.1v12c0,2.4-1.9,4.3-4.3,4.3H15.4c-2.3,0-4.3-2-4.3-4.3v-12c0-2.4,1.9-4.3,4.3-4.3h12.1
					C29.8,14.8,31.8,16.7,31.8,19.1z"/>
			</g>
			<g>
			</g>
		</g>
		<path class="st0" d="M19.9,52c-5.1,0-9.2-3.9-9.2-8.8c0-1,0.8-1.8,1.7-1.8c0.9,0,1.7,0.9,1.7,1.8c0,2.9,2.6,5.3,5.8,5.3
			c0.9,0,1.7,0.9,1.7,1.8C21.5,51.3,20.8,52,19.9,52z M49.8,22.3c-0.9,0-1.7-0.9-1.7-1.8c0-2.9-2.6-5.3-5.8-5.3
			c-0.9,0-1.7-0.9-1.7-1.8s0.8-1.8,1.7-1.8c5.1,0,9.2,3.9,9.2,8.8C51.5,21.5,50.8,22.3,49.8,22.3z"/>
		<g id="XMLID_4_">
			<g>
				<path class="st0" d="M56.4,32.9v12c0,4.5-3.5,7.9-7.8,7.9H36.5c-4.5,0-7.8-3.7-7.8-8.8v-7.4c0-1,0.8-1.8,1.7-1.8
					c0.9,0,1.7,0.8,1.7,1.8v2.4V44c0,3.1,1.7,5.3,4.3,5.3h12.1c2.4,0,4.3-1.8,4.3-4.3V33c0-2.3-2-4.3-4.3-4.3h-9.8H34
					c-0.9,0-1.7-0.8-1.7-1.8S33,25,34,25h14.7C52.9,25,56.4,28.6,56.4,32.9z"/>
			</g>
			<g>
			</g>
		</g>
		<path class="st1" d="M39.1,43.2h-2l4.4-8.7h2.1l4.4,8.7h-2.1l-1.2-2.4h-4.6C40.1,40.8,39.1,43.2,39.1,43.2z M42.6,35.9l-1.9,3.8
			h3.7L42.6,35.9z"/>
		<path class="st1" d="M20.8,19.5H22v2.1h4.3v5.7h-1.2v-0.7H22v4h-1.2v-4h-3.1v0.7h-1.2v-5.7h4.3V19.5z M17.7,25.6h3.1v-2.9h-3.1
			V25.6z M22,25.6h3.1v-2.9H22V25.6z"/>
	</g>
</g>
<g id="图层_3">
	<circle class="st2" cx="32" cy="32" r="6.5"/>
</g>
</svg>
