<?xml version="1.0" standalone="no"?><!DOCTYPE svg PUBLIC "-//W3C//DTD SVG 1.1//EN" "http://www.w3.org/Graphics/SVG/1.1/DTD/svg11.dtd"><svg t="1566385506418" class="icon" viewBox="0 0 1024 1024" version="1.1" xmlns="http://www.w3.org/2000/svg" p-id="3201" xmlns:xlink="http://www.w3.org/1999/xlink" width="64" height="64"><defs><style type="text/css"></style></defs><path d="M792.4736 293.888H568.6272a108.032 108.032 0 0 1-69.9392-25.7024l-9.1136-7.7824a148.48 148.48 0 0 0-96.256-35.1232H266.24a108.032 108.032 0 0 0-108.3392 107.6224v258.2528a238.08 238.08 0 0 1 298.9056 229.888h335.6672a108.032 108.032 0 0 0 108.032-108.032V401.92A108.032 108.032 0 0 0 792.4736 293.888z m9.4208 392.192a162.5088 162.5088 0 0 1-39.8336 11.264 538.7264 538.7264 0 0 1-169.7792 0 162.6112 162.6112 0 0 1-39.936-11.264 34.816 34.816 0 0 1-23.4496-29.696A93.0816 93.0816 0 0 1 552.96 601.8048 128.1024 128.1024 0 0 1 612.1472 563.2a7.2704 7.2704 0 0 0 2.56-12.288 92.16 92.16 0 1 1 124.7232 0 7.2704 7.2704 0 0 0 2.4576 12.288 130.56 130.56 0 0 1 59.6992 38.6048 109.4656 109.4656 0 0 1 18.1248 29.5936 70.9632 70.9632 0 0 1 5.632 25.2928A34.816 34.816 0 0 1 801.8944 686.08z" fill="#1082FF" p-id="3202"></path><path d="M686.08 595.1488a7.5776 7.5776 0 0 1 0.9216-6.2464l3.072-4.7104a7.5776 7.5776 0 0 0 1.2288-4.5056v-0.6144a7.5776 7.5776 0 0 0-7.2704-7.168h-14.2336a7.5776 7.5776 0 0 0-7.2704 7.168v0.6144a7.5776 7.5776 0 0 0 1.2288 4.5056l3.1744 4.8128a7.5776 7.5776 0 0 1 1.024 6.0416l-14.7456 57.1392a7.5776 7.5776 0 0 0 2.9696 8.0896l17.6128 12.1856a7.5776 7.5776 0 0 0 8.6016 0l17.408-12.0832a7.5776 7.5776 0 0 0 2.9696-8.2944z" fill="#1082FF" p-id="3203"></path><path d="M218.8288 583.0656a238.1824 238.1824 0 0 0-61.44 7.9872v121.856a108.032 108.032 0 0 0 108.032 108.1344h191.3856a237.9776 237.9776 0 0 0-237.9776-237.9776z" fill="#1082FF" p-id="3204"></path><path d="M218.8288 583.0656a238.1824 238.1824 0 0 0-61.44 7.9872v121.856a108.032 108.032 0 0 0 108.032 108.1344h191.3856a237.9776 237.9776 0 0 0-237.9776-237.9776z" fill="#459CFC" p-id="3205"></path></svg>